<svg width="28" height="25" viewBox="0 0 28 25" fill="none" xmlns="http://www.w3.org/2000/svg">
<path d="M13.5503 0.124434C13.6861 0.0430076 13.8416 0 14 0C14.1584 0 14.3139 0.0430076 14.4497 0.124434L26.3007 7.23468C26.8193 7.5458 27.2483 7.98595 27.5461 8.51224C27.8439 9.03852 28.0003 9.63299 28 10.2377V20.1252C28 21.2855 27.5391 22.3983 26.7186 23.2188C25.8981 24.0392 24.7853 24.5002 23.625 24.5002H4.375C3.21468 24.5002 2.10188 24.0392 1.28141 23.2188C0.460937 22.3983 4.54484e-07 21.2855 4.54484e-07 20.1252V10.2377C-0.000307665 9.63299 0.156058 9.03852 0.453857 8.51224C0.751656 7.98595 1.18073 7.5458 1.69925 7.23468L2.072 7.85593L1.69925 7.23468L13.5503 0.124434ZM14 1.89543L2.6005 8.73618L2.576 8.75018L14 15.6049L25.424 8.75018L25.4012 8.73618L14 1.89543ZM26.25 10.2954L14.4497 17.3759C14.3139 17.4574 14.1584 17.5004 14 17.5004C13.8416 17.5004 13.6861 17.4574 13.5503 17.3759L1.75 10.2954V20.1252C1.75 20.8214 2.02656 21.4891 2.51885 21.9813C3.01113 22.4736 3.67881 22.7502 4.375 22.7502H23.625C24.3212 22.7502 24.9889 22.4736 25.4812 21.9813C25.9734 21.4891 26.25 20.8214 26.25 20.1252V10.2954Z" fill="black"/>
</svg>
