<svg width="28" height="35" viewBox="0 0 28 35" fill="none" xmlns="http://www.w3.org/2000/svg">
<path d="M20.6203 17.1175L20.6035 17.1616C20.6088 17.1483 20.613 17.1346 20.6182 17.1213L20.6203 17.1175Z" fill="black"/>
<mask id="path-2-inside-1_499_15809" fill="white">
<path d="M14.0007 0C8.2334 0 3.5 4.718 3.5 10.4727C3.5 12.7029 4.214 14.7812 5.418 16.4836L5.37495 16.4164L12.097 28.0357L12.131 28.0801C12.4019 28.4336 12.67 28.7185 12.9944 28.9331C13.3189 29.1476 13.7344 29.2831 14.1425 29.2421C14.958 29.1602 15.4318 28.5967 15.8697 28.0031L15.897 27.9664L23.3079 15.3545L23.3139 15.344C23.4913 15.0237 23.6198 14.7007 23.7297 14.3878C24.2379 13.1451 24.4995 11.8153 24.5 10.4727C24.5 4.718 19.768 0 14.0007 0ZM14.0007 1.75C18.8146 1.75 22.75 5.6763 22.75 10.4727C22.7503 11.593 22.5315 12.7026 22.106 13.7389L22.0972 13.7606L22.0896 13.7833C21.9975 14.0483 21.8974 14.2887 21.7819 14.4973L14.4462 26.9804C14.1218 27.4078 13.895 27.5089 13.9678 27.5012C14.0052 27.4977 14.0399 27.5271 13.9597 27.4739C13.8831 27.4232 13.7266 27.2744 13.5411 27.0378L6.8705 15.505L6.84705 15.4724C5.8415 14.0514 5.25 12.3305 5.25 10.4727C5.25 5.67665 9.1868 1.75 14.0007 1.75ZM14.0007 4.4975C10.689 4.4975 8.01045 7.1666 8.01045 10.4727C8.01045 13.7788 10.6893 16.4479 14.0007 16.4479C17.312 16.4479 19.9895 13.7784 19.9895 10.4727C19.9895 7.1666 17.312 4.4975 14.0007 4.4975ZM14.0007 6.2475C16.3866 6.2475 18.2395 8.09725 18.2395 10.4727C18.2395 12.8481 16.387 14.6979 14.0007 14.6979C11.6144 14.6979 9.76045 12.8478 9.76045 10.4727C9.76045 8.09725 11.6147 6.2475 14.0007 6.2475Z"/>
</mask>
<path d="M14.0007 0C8.2334 0 3.5 4.718 3.5 10.4727C3.5 12.7029 4.214 14.7812 5.418 16.4836L5.37495 16.4164L12.097 28.0357L12.131 28.0801C12.4019 28.4336 12.67 28.7185 12.9944 28.9331C13.3189 29.1476 13.7344 29.2831 14.1425 29.2421C14.958 29.1602 15.4318 28.5967 15.8697 28.0031L15.897 27.9664L23.3079 15.3545L23.3139 15.344C23.4913 15.0237 23.6198 14.7007 23.7297 14.3878C24.2379 13.1451 24.4995 11.8153 24.5 10.4727C24.5 4.718 19.768 0 14.0007 0ZM14.0007 1.75C18.8146 1.75 22.75 5.6763 22.75 10.4727C22.7503 11.593 22.5315 12.7026 22.106 13.7389L22.0972 13.7606L22.0896 13.7833C21.9975 14.0483 21.8974 14.2887 21.7819 14.4973L14.4462 26.9804C14.1218 27.4078 13.895 27.5089 13.9678 27.5012C14.0052 27.4977 14.0399 27.5271 13.9597 27.4739C13.8831 27.4232 13.7266 27.2744 13.5411 27.0378L6.8705 15.505L6.84705 15.4724C5.8415 14.0514 5.25 12.3305 5.25 10.4727C5.25 5.67665 9.1868 1.75 14.0007 1.75ZM14.0007 4.4975C10.689 4.4975 8.01045 7.1666 8.01045 10.4727C8.01045 13.7788 10.6893 16.4479 14.0007 16.4479C17.312 16.4479 19.9895 13.7784 19.9895 10.4727C19.9895 7.1666 17.312 4.4975 14.0007 4.4975ZM14.0007 6.2475C16.3866 6.2475 18.2395 8.09725 18.2395 10.4727C18.2395 12.8481 16.387 14.6979 14.0007 14.6979C11.6144 14.6979 9.76045 12.8478 9.76045 10.4727C9.76045 8.09725 11.6147 6.2475 14.0007 6.2475Z" fill="black"/>
<path d="M5.418 16.4836L2.96866 18.2159L7.94411 14.8653L5.418 16.4836ZM5.37495 16.4164L7.90106 14.7981L2.7782 17.9187L5.37495 16.4164ZM12.097 28.0357L9.5003 29.538L9.59642 29.7041L9.71292 29.8567L12.097 28.0357ZM12.131 28.0801L9.74687 29.9011L9.7498 29.9049L12.131 28.0801ZM14.1425 29.2421L14.442 32.2272L14.4422 32.2271L14.1425 29.2421ZM15.8697 28.0031L13.4614 26.2142L13.4554 26.2223L15.8697 28.0031ZM15.897 27.9664L18.3053 29.7553L18.4016 29.6256L18.4835 29.4863L15.897 27.9664ZM23.3079 15.3545L25.8944 16.8744L25.9064 16.854L25.918 16.8335L23.3079 15.3545ZM23.3139 15.344L25.924 16.823L25.931 16.8105L25.9379 16.798L23.3139 15.344ZM23.7297 14.3878L20.9529 13.2522L20.9242 13.3222L20.8992 13.3936L23.7297 14.3878ZM24.5 10.4727L27.5 10.4737V10.4727H24.5ZM22.75 10.4727H19.75V10.4735L22.75 10.4727ZM22.106 13.7389L19.3308 12.5994L19.3272 12.6081L19.3237 12.6169L22.106 13.7389ZM22.0972 13.7606L19.3149 12.6386L19.283 12.7178L19.2557 12.7987L22.0972 13.7606ZM22.0896 13.7833L24.9234 14.7679L24.9273 14.7566L24.9311 14.7453L22.0896 13.7833ZM21.7819 14.4973L24.3684 16.0173L24.3878 15.9842L24.4064 15.9505L21.7819 14.4973ZM14.4462 26.9804L16.8356 28.7945L16.9429 28.6533L17.0327 28.5004L14.4462 26.9804ZM13.9678 27.5012L13.6886 24.5143L13.6704 24.516L13.6523 24.5179L13.9678 27.5012ZM13.9597 27.4739L15.6188 24.9744L15.6159 24.9725L13.9597 27.4739ZM13.5411 27.0378L10.9443 28.5399L11.05 28.7227L11.1803 28.8888L13.5411 27.0378ZM6.8705 15.505L9.46739 14.0029L9.39228 13.8731L9.3046 13.7514L6.8705 15.505ZM6.84705 15.4724L4.39817 17.2054L4.40552 17.2157L4.41295 17.2261L6.84705 15.4724ZM14.0007 -3C6.58462 -3 0.5 3.05308 0.5 10.4727H6.5C6.5 6.38292 9.88218 3 14.0007 3V-3ZM0.5 10.4727C0.5 13.3515 1.42301 16.0304 2.96866 18.2159L7.86734 14.7513C7.00499 13.532 6.5 12.0543 6.5 10.4727H0.5ZM7.94411 14.8653L7.90106 14.7981L2.84884 18.0347L2.89189 18.1019L7.94411 14.8653ZM2.7782 17.9187L9.5003 29.538L14.6938 26.5334L7.9717 14.9141L2.7782 17.9187ZM9.71292 29.8567L9.74687 29.9011L14.5151 26.2592L14.4812 26.2147L9.71292 29.8567ZM9.7498 29.9049C10.1204 30.3886 10.6242 30.9623 11.3397 31.4355L14.6492 26.4307C14.7158 26.4748 14.6834 26.4787 14.5122 26.2553L9.7498 29.9049ZM11.3397 31.4355C12.111 31.9455 13.2062 32.3512 14.442 32.2272L13.8429 26.2571C14.0647 26.2349 14.2404 26.2645 14.3575 26.2978C14.4738 26.3309 14.5685 26.3774 14.6492 26.4307L11.3397 31.4355ZM14.4422 32.2271C16.6922 32.0012 17.8615 30.3567 18.284 29.784L13.4554 26.2223C13.3604 26.3512 13.3021 26.4252 13.2587 26.4755C13.2173 26.5235 13.2146 26.52 13.247 26.4935C13.2833 26.4637 13.3609 26.4073 13.4782 26.3552C13.5999 26.3013 13.7265 26.2688 13.8427 26.2572L14.4422 32.2271ZM18.278 29.7921L18.3053 29.7553L13.4887 26.1775L13.4614 26.2142L18.278 29.7921ZM18.4835 29.4863L25.8944 16.8744L20.7214 13.8346L13.3105 26.4465L18.4835 29.4863ZM25.918 16.8335L25.924 16.823L20.7037 13.865L20.6978 13.8755L25.918 16.8335ZM25.9379 16.798C26.2307 16.2696 26.4236 15.7707 26.5601 15.382L20.8992 13.3936C20.8159 13.6307 20.7519 13.7779 20.6898 13.89L25.9379 16.798ZM26.5064 15.5234C27.1619 13.9205 27.4994 12.2055 27.5 10.4737L21.5 10.4717C21.4997 11.4252 21.3138 12.3696 20.9529 13.2522L26.5064 15.5234ZM27.5 10.4727C27.5 3.0536 21.4173 -3 14.0007 -3V3C18.1187 3 21.5 6.3824 21.5 10.4727H27.5ZM14.0007 4.75C17.1657 4.75 19.75 7.34112 19.75 10.4727H25.75C25.75 4.01148 20.4635 -1.25 14.0007 -1.25V4.75ZM19.75 10.4735C19.7502 11.2027 19.6078 11.9249 19.3308 12.5994L24.8812 14.8784C25.4553 13.4803 25.7504 11.9833 25.75 10.4719L19.75 10.4735ZM19.3237 12.6169L19.3149 12.6386L24.8796 14.8826L24.8883 14.8609L19.3237 12.6169ZM19.2557 12.7987L19.2479 12.8214L24.9311 14.7453L24.9389 14.7225L19.2557 12.7987ZM19.2557 12.7988C19.2275 12.8799 19.2041 12.9398 19.1857 12.9829C19.1672 13.0262 19.1572 13.0445 19.1574 13.0442L24.4064 15.9505C24.6336 15.5402 24.7986 15.1271 24.9234 14.7679L19.2557 12.7988ZM19.1954 12.9774L11.8598 25.4605L17.0327 28.5004L24.3684 16.0173L19.1954 12.9774ZM12.0569 25.1664C12.0363 25.1934 12.042 25.182 12.0738 25.154C12.0766 25.1514 12.078 25.1504 12.0638 25.1624C12.0597 25.1658 12.0416 25.1811 12.0238 25.1965C12.0082 25.2099 11.9656 25.2467 11.9152 25.2938C11.8824 25.3246 11.7511 25.447 11.6101 25.6241C11.5394 25.7128 11.4025 25.894 11.2744 26.1487C11.1624 26.3716 10.9238 26.909 10.9573 27.6367C10.9982 28.5233 11.4258 29.3224 12.0888 29.8492C12.6316 30.2805 13.1752 30.4071 13.4064 30.4503C13.865 30.536 14.2376 30.4894 14.2833 30.4846L13.6523 24.5179C13.6889 24.514 14.0548 24.4676 14.5088 24.5524C14.7378 24.5952 15.2797 24.7211 15.8213 25.1515C16.4831 25.6774 16.9102 26.4754 16.951 27.3605C16.9844 28.0868 16.7463 28.6225 16.6353 28.8434C16.5082 29.0961 16.3728 29.275 16.3041 29.3612C16.1672 29.5332 16.042 29.6494 16.0172 29.6726C15.9558 29.7302 15.8947 29.7805 15.9395 29.7427C15.9562 29.7286 15.9954 29.6954 16.0423 29.654C16.2504 29.4705 16.5317 29.1948 16.8356 28.7945L12.0569 25.1664ZM14.247 30.4882C13.8531 30.525 13.5456 30.4724 13.4129 30.4462C13.3371 30.4313 13.2786 30.4164 13.2705 30.4143C13.2532 30.41 13.2892 30.4192 13.3209 30.4266C13.3401 30.4311 13.3839 30.4412 13.4401 30.452C13.4829 30.4603 13.6085 30.484 13.7714 30.4969C13.7812 30.4977 14.4098 30.5752 15.1175 30.2936C15.5539 30.12 16.3372 29.6779 16.7614 28.6982C17.1808 27.7297 16.9737 26.8692 16.8171 26.4518C16.5572 25.7594 16.0985 25.3537 16.0864 25.3421C15.9686 25.229 15.8674 25.1507 15.8293 25.1216C15.7454 25.0575 15.6752 25.0112 15.6653 25.0047C15.6436 24.9903 15.6257 24.9788 15.6219 24.9764C15.6034 24.9644 15.6153 24.9721 15.6188 24.9744L12.3007 29.9735C12.3443 30.0024 12.3819 30.0263 12.3782 30.024C12.3782 30.024 12.3633 30.0144 12.344 30.0016C12.3366 29.9967 12.2682 29.9517 12.1855 29.8885C12.148 29.8598 12.0472 29.7819 11.9298 29.6691C11.9181 29.6578 11.4596 29.2524 11.1998 28.5603C11.0431 28.143 10.8361 27.2825 11.2554 26.3141C11.6796 25.3344 12.4629 24.8924 12.8992 24.7188C13.6066 24.4373 14.235 24.5148 14.2444 24.5156C14.4068 24.5284 14.5319 24.5521 14.5741 24.5602C14.6296 24.5709 14.6727 24.5808 14.691 24.5851C14.721 24.5922 14.7549 24.6008 14.7352 24.5959C14.7222 24.5926 14.6574 24.5761 14.5744 24.5597C14.4271 24.5307 14.1012 24.4757 13.6886 24.5143L14.247 30.4882ZM15.6159 24.9725C15.688 25.0203 15.743 25.0618 15.778 25.0892C15.8147 25.1179 15.8431 25.142 15.8626 25.1591C15.9007 25.1924 15.9233 25.215 15.9304 25.2223C15.9448 25.2368 15.9327 25.226 15.902 25.1869L11.1803 28.8888C11.4249 29.2009 11.8194 29.6548 12.3036 29.9754L15.6159 24.9725ZM16.138 25.5358L9.46739 14.0029L4.27361 17.0071L10.9443 28.5399L16.138 25.5358ZM9.3046 13.7514L9.28115 13.7188L4.41295 17.2261L4.4364 17.2586L9.3046 13.7514ZM9.29593 13.7395C8.63204 12.8014 8.25 11.6811 8.25 10.4727H2.25C2.25 12.9799 3.05096 15.3015 4.39817 17.2054L9.29593 13.7395ZM8.25 10.4727C8.25 7.34202 10.8351 4.75 14.0007 4.75V-1.25C7.53847 -1.25 2.25 4.01128 2.25 10.4727H8.25ZM14.0007 1.4975C9.04016 1.4975 5.01045 5.50175 5.01045 10.4727H11.0105C11.0105 8.83145 12.3378 7.4975 14.0007 7.4975V1.4975ZM5.01045 10.4727C5.01045 15.4438 9.04062 19.4479 14.0007 19.4479V13.4479C12.3381 13.4479 11.0105 12.1138 11.0105 10.4727H5.01045ZM14.0007 19.4479C18.9618 19.4479 22.9895 15.4424 22.9895 10.4727H16.9895C16.9895 12.1145 15.6623 13.4479 14.0007 13.4479V19.4479ZM22.9895 10.4727C22.9895 5.50254 18.9617 1.4975 14.0007 1.4975V7.4975C15.6624 7.4975 16.9895 8.83066 16.9895 10.4727H22.9895ZM14.0007 9.2475C14.7376 9.2475 15.2395 9.76191 15.2395 10.4727H21.2395C21.2395 6.43259 18.0357 3.2475 14.0007 3.2475V9.2475ZM15.2395 10.4727C15.2395 11.1837 14.7378 11.6979 14.0007 11.6979V17.6979C18.0362 17.6979 21.2395 14.5126 21.2395 10.4727H15.2395ZM14.0007 11.6979C13.2625 11.6979 12.7605 11.1822 12.7605 10.4727H6.76045C6.76045 14.5134 9.96634 17.6979 14.0007 17.6979V11.6979ZM12.7605 10.4727C12.7605 9.76321 13.2625 9.2475 14.0007 9.2475V3.2475C9.96701 3.2475 6.76045 6.43129 6.76045 10.4727H12.7605Z" fill="black" mask="url(#path-2-inside-1_499_15809)"/>
<path d="M8.4021 24.1705C3.458 24.8691 0 26.5403 0 29.0005C0 32.3143 5.7778 35.0005 14 35.0005C22.2222 35.0005 28 32.3143 28 29.0005C28 26.5403 24.5424 24.8691 19.5986 24.1705L18.9137 25.3367C22.6398 25.8536 26.5 27.7394 26.5 29.0001C26.5 30.7676 20.1856 33.5001 14 33.5001C7.81445 33.5001 1.5 30.7676 1.5 29.0001C1.49965 27.7436 5.3431 25.8589 9.08075 25.3398C8.855 24.9499 8.6282 24.5607 8.4021 24.1705Z" fill="black"/>
</svg>
