<svg width="20" height="13" viewBox="0 0 20 13" fill="none" xmlns="http://www.w3.org/2000/svg">
<path d="M18.9444 5.43481H1.05556C0.472588 5.43481 0 5.88525 0 6.4409V6.54681C0 7.10245 0.472588 7.55289 1.05556 7.55289H18.9444C19.5274 7.55289 20 7.10245 20 6.54681V6.4409C20 5.88525 19.5274 5.43481 18.9444 5.43481Z" fill="black"/>
<path d="M18.9444 10.73H1.05556C0.472588 10.73 0 11.1805 0 11.7361V11.842C0 12.3977 0.472588 12.8481 1.05556 12.8481H18.9444C19.5274 12.8481 20 12.3977 20 11.842V11.7361C20 11.1805 19.5274 10.73 18.9444 10.73Z" fill="black"/>
<path d="M18.9444 0.139648H1.05556C0.472588 0.139648 0 0.590089 0 1.14574V1.25164C0 1.80729 0.472588 2.25773 1.05556 2.25773H18.9444C19.5274 2.25773 20 1.80729 20 1.25164V1.14574C20 0.590089 19.5274 0.139648 18.9444 0.139648Z" fill="black"/>
</svg>
