<svg width="17" height="17" viewBox="0 0 17 17" fill="none" xmlns="http://www.w3.org/2000/svg">
<path d="M8.1828 5.4554C6.67986 5.4554 5.45336 6.68191 5.45336 8.18485C5.45336 9.68778 6.67986 10.9143 8.1828 10.9143C9.68573 10.9143 10.9122 9.68778 10.9122 8.18485C10.9122 6.68191 9.68573 5.4554 8.1828 5.4554ZM16.3691 8.18485C16.3691 7.05457 16.3793 5.93454 16.3158 4.80632C16.2524 3.49585 15.9534 2.33282 14.9952 1.37455C14.0348 0.414223 12.8738 0.117322 11.5634 0.0538465C10.4331 -0.00962896 9.31307 0.000609045 8.18485 0.000609045C7.05457 0.000609045 5.93454 -0.00962896 4.80632 0.0538465C3.49585 0.117322 2.33282 0.416271 1.37455 1.37455C0.414223 2.33487 0.117322 3.49585 0.0538465 4.80632C-0.00962896 5.93659 0.000609045 7.05662 0.000609045 8.18485C0.000609045 9.31307 -0.00962896 10.4352 0.0538465 11.5634C0.117322 12.8738 0.416271 14.0369 1.37455 14.9951C2.33487 15.9555 3.49585 16.2524 4.80632 16.3158C5.93659 16.3793 7.05662 16.3691 8.18485 16.3691C9.31512 16.3691 10.4352 16.3793 11.5634 16.3158C12.8738 16.2524 14.0369 15.9534 14.9952 14.9951C15.9555 14.0348 16.2524 12.8738 16.3158 11.5634C16.3814 10.4352 16.3691 9.31512 16.3691 8.18485ZM8.1828 12.3845C5.85878 12.3845 3.98318 10.5089 3.98318 8.18485C3.98318 5.86083 5.85878 3.98523 8.1828 3.98523C10.5068 3.98523 12.3824 5.86083 12.3824 8.18485C12.3824 10.5089 10.5068 12.3845 8.1828 12.3845ZM12.5544 4.79403C12.0118 4.79403 11.5736 4.35584 11.5736 3.81323C11.5736 3.27062 12.0118 2.83243 12.5544 2.83243C13.097 2.83243 13.5352 3.27062 13.5352 3.81323C13.5354 3.94208 13.5101 4.06969 13.4609 4.18876C13.4117 4.30783 13.3394 4.41601 13.2483 4.50712C13.1572 4.59823 13.049 4.67047 12.9299 4.7197C12.8109 4.76893 12.6833 4.79419 12.5544 4.79403Z" fill="black"/>
</svg>
