<svg width="14" height="16" viewBox="0 0 14 16" fill="none" xmlns="http://www.w3.org/2000/svg">
<path d="M9.80445 8.25256C9.78609 9.05555 8.53763 9.70375 6.99984 9.70375C5.46206 9.70375 4.2136 9.05555 4.19524 8.25256C1.84267 8.45776 0 10.3428 0 12.6379C0 15.0702 2.06853 15.0643 4.62052 15.0643H9.37948C11.9312 15.0643 14 15.0705 14 12.6379C13.9997 10.3428 12.1573 8.45776 9.80445 8.25256Z" fill="black"/>
<path d="M3.50473 4.27204C3.50722 4.30406 3.51033 4.3352 3.51313 4.36692C3.73619 6.77174 5.21207 8.62946 6.99999 8.62946C8.78759 8.62946 10.2638 6.77144 10.4868 4.36692C10.49 4.33549 10.4928 4.30406 10.4952 4.27204C10.5111 4.16766 10.5217 4.0621 10.5279 3.95505C10.5326 3.88181 10.5351 3.80857 10.5351 3.73384C10.5351 3.55059 10.5214 3.37119 10.4949 3.19565C10.2367 1.49182 8.77017 0.186523 6.99999 0.186523C5.2298 0.186523 3.76326 1.49182 3.50473 3.19565C3.47798 3.37119 3.4646 3.55089 3.4646 3.73384C3.4646 3.80827 3.46771 3.88181 3.47144 3.95505C3.4786 4.0621 3.48887 4.16796 3.50473 4.27204Z" fill="black"/>
</svg>
