<svg width="9" height="12" viewBox="0 0 9 12" fill="none" xmlns="http://www.w3.org/2000/svg">
<path d="M0 1.50002C0 1.10219 0.158038 0.720656 0.439347 0.439347C0.720656 0.158038 1.10219 0 1.50002 0L7.50012 0C7.89795 0 8.27949 0.158038 8.5608 0.439347C8.84211 0.720656 9.00014 1.10219 9.00014 1.50002V11.6252C9.00011 11.693 8.98168 11.7596 8.94681 11.8178C8.91194 11.8759 8.86194 11.9236 8.80214 11.9556C8.74234 11.9876 8.67498 12.0028 8.60722 11.9996C8.53946 11.9963 8.47386 11.9748 8.41739 11.9372L4.50007 9.82591L0.582759 11.9372C0.526287 11.9748 0.46068 11.9963 0.392925 11.9996C0.32517 12.0028 0.257804 11.9876 0.198003 11.9556C0.138202 11.9236 0.0882045 11.8759 0.0533364 11.8178C0.0184683 11.7596 3.50409e-05 11.693 0 11.6252V1.50002ZM1.50002 0.750012C1.30111 0.750012 1.11034 0.829031 0.969685 0.969685C0.829031 1.11034 0.750012 1.30111 0.750012 1.50002V10.9247L4.29232 9.06315C4.35387 9.02219 4.42614 9.00034 4.50007 9.00034C4.574 9.00034 4.64628 9.02219 4.70783 9.06315L8.25013 10.9247V1.50002C8.25013 1.30111 8.17111 1.11034 8.03046 0.969685C7.8898 0.829031 7.69904 0.750012 7.50012 0.750012H1.50002Z" fill="white"/>
</svg>
