<svg width="12" height="16" viewBox="0 0 12 16" fill="none" xmlns="http://www.w3.org/2000/svg">
<path d="M0.856919 13.7149H11.1431C11.3603 13.715 11.5693 13.7975 11.728 13.9457C11.8867 14.094 11.9832 14.297 11.998 14.5136C12.0128 14.7303 11.9448 14.9445 11.8078 15.113C11.6707 15.2815 11.4748 15.3916 11.2597 15.4212L11.1431 15.4292H0.856919C0.63974 15.4292 0.430682 15.3467 0.271989 15.1984C0.113295 15.0501 0.0167977 14.8472 0.00199481 14.6305C-0.0128081 14.4138 0.055187 14.1996 0.192241 14.0311C0.329295 13.8627 0.52519 13.7525 0.740342 13.7229L0.856919 13.7149H11.1431H0.856919ZM5.88342 0.00800031L6 0C6.20714 8.73512e-06 6.40727 0.0750236 6.56337 0.211172C6.71948 0.34732 6.82101 0.535391 6.84918 0.740604L6.85718 0.85718V9.64385L9.43444 7.06774C9.57978 6.92244 9.77249 6.8342 9.97745 6.81909C10.1824 6.80399 10.386 6.86303 10.5511 6.98545L10.6471 7.06774C10.7924 7.21308 10.8806 7.4058 10.8957 7.61076C10.9108 7.81572 10.8518 8.01928 10.7293 8.18436L10.6471 8.28036L6.60574 12.3205C6.46061 12.4657 6.26819 12.554 6.06349 12.5693C5.85878 12.5846 5.65538 12.5259 5.49026 12.404L5.39426 12.3205L1.35294 8.28036C1.19957 8.12741 1.10979 7.92207 1.10165 7.70562C1.09351 7.48917 1.16762 7.27767 1.30907 7.11363C1.45052 6.9496 1.64882 6.84519 1.86412 6.82141C2.07941 6.79763 2.29572 6.85624 2.46956 6.98545L2.56556 7.06774L5.14282 9.64613V0.85718C5.14283 0.650043 5.21784 0.449914 5.35399 0.293806C5.49014 0.137698 5.67821 0.036171 5.88342 0.00800031L6 0L5.88342 0.00800031Z" fill="#2578AC"/>
</svg>
