<svg width="14" height="14" viewBox="0 0 14 14" fill="none" xmlns="http://www.w3.org/2000/svg">
<path d="M6.99965 0C3.13338 0 0 3.13408 0 6.99965C0 9.96487 1.84485 12.4999 4.44923 13.52C4.38757 12.9665 4.33292 12.1145 4.47305 11.5105C4.60057 10.964 5.29423 8.03103 5.29423 8.03103C5.29423 8.03103 5.08473 7.61133 5.08473 6.99124C5.08473 6.01872 5.64877 5.29213 6.35153 5.29213C6.9492 5.29213 7.23718 5.74055 7.23718 6.27796C7.23718 6.87913 6.85461 7.77669 6.65772 8.60908C6.49307 9.30554 7.00736 9.87378 7.69401 9.87378C8.93769 9.87378 9.8948 8.56213 9.8948 6.66823C9.8948 4.99224 8.69036 3.82073 6.97092 3.82073C4.97893 3.82073 3.80952 5.31455 3.80952 6.85811C3.80952 7.45929 4.04144 8.1046 4.33081 8.45563C4.3554 8.48207 4.37277 8.5144 4.38124 8.54949C4.38971 8.58459 4.38899 8.62128 4.37916 8.65602C4.32591 8.87673 4.2075 9.35248 4.18508 9.44988C4.15425 9.5781 4.08348 9.60542 3.95035 9.54377C3.07662 9.13668 2.5301 7.85867 2.5301 6.83149C2.5301 4.62369 4.13393 2.59597 7.1552 2.59597C9.5837 2.59597 11.4706 4.32591 11.4706 6.63881C11.4706 9.0519 9.94945 10.992 7.83835 10.992C7.12857 10.992 6.46224 10.6242 6.23382 10.1891L5.79731 11.8525C5.63966 12.4606 5.21295 13.223 4.92778 13.6882C5.5991 13.8955 6.29777 14.0006 7.00035 14C10.8659 14 14 10.8659 14 7.00035C14 3.13478 10.8652 0 6.99965 0Z" fill="#B1B1B1"/>
</svg>
