<svg width="14" height="14" viewBox="0 0 14 14" fill="none" xmlns="http://www.w3.org/2000/svg">
<path d="M6.99812 4.66559C5.71277 4.66559 4.66383 5.71453 4.66383 6.99987C4.66383 8.28521 5.71277 9.33415 6.99812 9.33415C8.28346 9.33415 9.3324 8.28521 9.3324 6.99987C9.3324 5.71453 8.28346 4.66559 6.99812 4.66559ZM13.9992 6.99987C13.9992 6.03323 14.008 5.07536 13.9537 4.11047C13.8994 2.98973 13.6437 1.99508 12.8242 1.17554C12.0029 0.354253 11.01 0.100336 9.88927 0.0460508C8.92263 -0.00823491 7.96475 0.00052087 6.99987 0.00052087C6.03323 0.00052087 5.07536 -0.00823491 4.11047 0.0460508C2.98973 0.100336 1.99508 0.356004 1.17554 1.17554C0.354253 1.99683 0.100336 2.98973 0.0460508 4.11047C-0.00823491 5.07711 0.00052087 6.03499 0.00052087 6.99987C0.00052087 7.96475 -0.00823491 8.92438 0.0460508 9.88927C0.100336 11.01 0.356004 12.0047 1.17554 12.8242C1.99683 13.6455 2.98973 13.8994 4.11047 13.9537C5.07711 14.008 6.03499 13.9992 6.99987 13.9992C7.9665 13.9992 8.92438 14.008 9.88927 13.9537C11.01 13.8994 12.0047 13.6437 12.8242 12.8242C13.6455 12.0029 13.8994 11.01 13.9537 9.88927C14.0097 8.92438 13.9992 7.9665 13.9992 6.99987ZM6.99812 10.5915C5.01056 10.5915 3.40651 8.98743 3.40651 6.99987C3.40651 5.01231 5.01056 3.40826 6.99812 3.40826C8.98567 3.40826 10.5897 5.01231 10.5897 6.99987C10.5897 8.98743 8.98567 10.5915 6.99812 10.5915ZM10.7368 4.09996C10.2728 4.09996 9.89802 3.72522 9.89802 3.26116C9.89802 2.79711 10.2728 2.42236 10.7368 2.42236C11.2009 2.42236 11.5756 2.79711 11.5756 3.26116C11.5758 3.37135 11.5542 3.48049 11.5121 3.58232C11.47 3.68415 11.4082 3.77668 11.3303 3.85459C11.2523 3.93251 11.1598 3.99429 11.058 4.0364C10.9562 4.0785 10.847 4.1001 10.7368 4.09996Z" fill="#B1B1B1"/>
</svg>
