<svg width="18" height="15" viewBox="0 0 18 15" fill="none" xmlns="http://www.w3.org/2000/svg">
<path d="M17.44 1.68302C16.7987 1.95968 16.1007 2.15879 15.3818 2.23634C16.1282 1.79292 16.6871 1.09239 16.9538 0.266188C16.2534 0.682831 15.4861 0.974988 14.686 1.1297C14.3516 0.772194 13.9471 0.487389 13.4978 0.293031C13.0485 0.0986734 12.564 -0.00107265 12.0745 8.69884e-06C10.0939 8.69884e-06 8.50098 1.60547 8.50098 3.57562C8.50098 3.85228 8.53451 4.12894 8.58901 4.39512C5.62331 4.24002 2.97828 2.82319 1.21982 0.65393C0.899405 1.2012 0.731498 1.82434 0.733566 2.4585C0.733566 3.69928 1.36443 4.79334 2.32645 5.43678C1.75952 5.41445 1.20586 5.25862 0.710511 4.98197V5.02598C0.710511 6.76348 1.93871 8.20337 3.57561 8.53452C3.26826 8.61436 2.95209 8.6552 2.63455 8.65608C2.4019 8.65608 2.18183 8.63303 1.95967 8.60159C2.41238 10.0184 3.73071 11.0475 5.30054 11.081C4.07234 12.0431 2.53395 12.609 0.863512 12.609C0.563798 12.609 0.287139 12.5985 0 12.5649C1.5845 13.5815 3.46453 14.1683 5.48917 14.1683C12.0619 14.1683 15.6585 8.72315 15.6585 3.99689C15.6585 3.8418 15.6585 3.6867 15.648 3.5316C16.3438 3.0223 16.9538 2.39143 17.44 1.68302Z" fill="black"/>
</svg>
