<svg width="20" height="18" viewBox="0 0 20 18" fill="none" xmlns="http://www.w3.org/2000/svg">
<path fill-rule="evenodd" clip-rule="evenodd" d="M14.7766 7.51632C14.7766 10.4514 12.0375 13.0367 8.38829 13.0367C4.73904 13.0367 2 10.4514 2 7.51632C2 4.58125 4.73904 1.99591 8.38829 1.99591C12.0375 1.99591 14.7766 4.58125 14.7766 7.51632ZM13.2213 12.4483C11.9257 13.438 10.2362 14.0367 8.38829 14.0367C4.30785 14.0367 1 11.1174 1 7.51632C1 3.9152 4.30785 0.995911 8.38829 0.995911C12.4687 0.995911 15.7766 3.9152 15.7766 7.51632C15.7766 9.14713 15.0982 10.6381 13.9769 11.7815L18.9492 16.1697L18.2875 16.9195L13.2213 12.4483Z" fill="black"/>
<path d="M13.2213 12.4483L13.5521 12.0734L13.2441 11.8017L12.9177 12.051L13.2213 12.4483ZM13.9769 11.7815L13.6199 11.4314L13.2509 11.8076L13.646 12.1563L13.9769 11.7815ZM18.9492 16.1697L19.3241 16.5005L19.6549 16.1257L19.2801 15.7948L18.9492 16.1697ZM18.2875 16.9195L17.9567 17.2944L18.3316 17.6252L18.6624 17.2503L18.2875 16.9195ZM8.38829 13.5367C12.2562 13.5367 15.2766 10.7817 15.2766 7.51632H14.2766C14.2766 10.1211 11.8188 12.5367 8.38829 12.5367V13.5367ZM1.5 7.51632C1.5 10.7817 4.52035 13.5367 8.38829 13.5367V12.5367C4.95774 12.5367 2.5 10.1211 2.5 7.51632H1.5ZM8.38829 1.49591C4.52035 1.49591 1.5 4.25097 1.5 7.51632H2.5C2.5 4.91154 4.95774 2.49591 8.38829 2.49591V1.49591ZM15.2766 7.51632C15.2766 4.25097 12.2562 1.49591 8.38829 1.49591V2.49591C11.8188 2.49591 14.2766 4.91154 14.2766 7.51632H15.2766ZM8.38829 14.5367C10.3441 14.5367 12.1406 13.903 13.5248 12.8457L12.9177 12.051C11.7108 12.9729 10.1284 13.5367 8.38829 13.5367V14.5367ZM0.5 7.51632C0.5 11.4505 4.09226 14.5367 8.38829 14.5367V13.5367C4.52345 13.5367 1.5 10.7844 1.5 7.51632H0.5ZM8.38829 0.495911C4.09226 0.495911 0.5 3.58217 0.5 7.51632H1.5C1.5 4.24822 4.52345 1.49591 8.38829 1.49591V0.495911ZM16.2766 7.51632C16.2766 3.58217 12.6843 0.495911 8.38829 0.495911V1.49591C12.2531 1.49591 15.2766 4.24822 15.2766 7.51632H16.2766ZM14.3339 12.1316C15.5372 10.9046 16.2766 9.29121 16.2766 7.51632H15.2766C15.2766 9.00305 14.6592 10.3717 13.6199 11.4314L14.3339 12.1316ZM13.646 12.1563L18.6184 16.5446L19.2801 15.7948L14.3077 11.4066L13.646 12.1563ZM18.5743 15.8388L17.9126 16.5886L18.6624 17.2503L19.3241 16.5005L18.5743 15.8388ZM18.6184 16.5446L13.5521 12.0734L12.8904 12.8232L17.9567 17.2944L18.6184 16.5446Z" fill="black"/>
</svg>
