<svg width="15" height="11" viewBox="0 0 15 11" fill="none" xmlns="http://www.w3.org/2000/svg">
<path d="M12.1875 10.7687H9.72656C9.5332 10.7687 9.375 10.6179 9.375 10.4336V9.31662C9.375 9.13233 9.5332 8.98154 9.72656 8.98154H12.1875C12.7061 8.98154 13.125 8.58223 13.125 8.08797V2.72659C13.125 2.23234 12.7061 1.83303 12.1875 1.83303H9.72656C9.5332 1.83303 9.375 1.68224 9.375 1.49794V0.380985C9.375 0.196687 9.5332 0.0458984 9.72656 0.0458984H12.1875C13.7402 0.0458984 15 1.24662 15 2.72659V8.08797C15 9.56794 13.7402 10.7687 12.1875 10.7687ZM10.8105 5.15597L5.88867 0.464756C5.44922 0.0458984 4.6875 0.339099 4.6875 0.939462V3.62015H0.703125C0.313477 3.62015 0 3.91894 0 4.29033V6.97102C0 7.34241 0.313477 7.64119 0.703125 7.64119H4.6875V10.3219C4.6875 10.9222 5.44922 11.2154 5.88867 10.7966L10.8105 6.10538C11.083 5.84289 11.083 5.41845 10.8105 5.15597Z" fill="black"/>
</svg>
